<?xml version="1.0" encoding="UTF-8"?>
<svg id="_レイヤー_2" data-name="レイヤー 2" xmlns="http://www.w3.org/2000/svg" viewBox="0 0 271.37 285.23">
  <g id="_レイヤー_1-2" data-name="レイヤー 1">
    <g>
      <g>
        <path d="M14.33,57.78c-3.16,0-5.86-.41-8.07-1.22s-4.3-1.82-6.25-3.01v-9.05h.41c1.91,2.24,4.08,3.97,6.5,5.2,2.42,1.23,4.76,1.84,7,1.84,3.2,0,5.62-.83,7.27-2.5,1.64-1.67,2.46-3.86,2.46-6.59,0-2.17-.43-3.93-1.29-5.29-.86-1.36-2.23-2.37-4.1-3.03-1.35-.49-2.58-.89-3.69-1.2s-2.51-.74-4.19-1.28c-1.5-.49-2.85-1.11-4.04-1.86-1.19-.75-2.25-1.74-3.16-2.96-.9-1.19-1.6-2.6-2.1-4.22-.5-1.62-.75-3.49-.75-5.6C.32,12.6,1.7,8.91,4.45,5.93,7.21,2.95,10.72,1.46,15,1.46c2.44,0,4.75.3,6.93.91s4.19,1.47,6.05,2.59v8.65h-.44c-1.39-1.58-3.16-2.96-5.33-4.14-2.17-1.18-4.44-1.77-6.83-1.77-2.7,0-4.87.78-6.53,2.35-1.66,1.57-2.49,3.63-2.49,6.19,0,2.31.49,4.15,1.46,5.51.98,1.36,2.39,2.36,4.25,2.99,1.23.41,2.73.88,4.51,1.41,1.78.52,3.25,1,4.42,1.44,3.01,1.14,5.2,2.87,6.59,5.18,1.39,2.31,2.08,5.16,2.08,8.54,0,2.12-.35,4.21-1.04,6.28s-1.67,3.82-2.91,5.26c-1.41,1.58-2.99,2.8-4.76,3.65s-3.98,1.28-6.63,1.28Z"/>
        <path d="M53.16,9.2h-6.27V2.08h6.27v7.12ZM52.78,56.79h-5.51V16.02h5.51v40.77Z"/>
        <path d="M110.02,56.79v-23.58c0-1.87-.06-3.61-.18-5.2-.12-1.59-.36-2.84-.73-3.74-.39-.97-.95-1.69-1.67-2.15-.72-.46-1.7-.69-2.93-.69-1.13,0-2.35.43-3.65,1.3-1.3.86-2.64,2.11-4.03,3.74.02.41.04.91.07,1.48.03.57.04,1.25.04,2.03v26.83h-5.51v-23.58c0-1.87-.06-3.61-.18-5.2-.12-1.59-.36-2.84-.73-3.74-.39-.97-.95-1.69-1.67-2.15-.72-.46-1.7-.69-2.93-.69s-2.44.46-3.75,1.39c-1.31.92-2.58,2.1-3.81,3.54v30.44h-5.51V16.02h5.51v4.53c1.45-1.8,2.88-3.19,4.29-4.18s2.97-1.48,4.67-1.48c1.93,0,3.65.55,5.14,1.64s2.63,2.9,3.41,5.4c1.66-2.31,3.28-4.06,4.86-5.26s3.3-1.79,5.16-1.79c1.41,0,2.68.27,3.84.82,1.15.55,2.16,1.43,3.02,2.65.88,1.24,1.56,2.79,2.04,4.64s.72,4.17.72,6.97v26.83h-5.51Z"/>
        <path d="M162.71,35.33c0,6.79-1.3,12.2-3.91,16.22-2.61,4.03-5.9,6.04-9.89,6.04-1.62,0-3.06-.23-4.31-.69-1.25-.46-2.53-1.18-3.84-2.15v17.08h-5.51V16.02h5.51v4.27c1.37-1.53,2.88-2.82,4.55-3.85,1.67-1.03,3.49-1.55,5.46-1.55,3.75,0,6.67,1.85,8.77,5.55s3.15,8.66,3.15,14.89ZM157.03,36.1c0-4.65-.6-8.25-1.79-10.82-1.19-2.57-3.12-3.85-5.8-3.85-1.56,0-3.07.43-4.53,1.3-1.46.86-2.84,1.98-4.14,3.34v23.1c1.45.88,2.68,1.47,3.71,1.79s2.2.47,3.53.47c2.85,0,5.07-1.3,6.65-3.91s2.37-6.41,2.37-11.42Z"/>
        <path d="M186.05,56.79h-5.51V0h5.51v56.79Z"/>
        <path d="M220.34,57.74c-5.21,0-9.26-1.83-12.14-5.49-2.88-3.66-4.32-8.86-4.32-15.6s1.4-11.93,4.19-15.86c2.79-3.93,6.45-5.89,10.96-5.89,2.03,0,3.83.37,5.39,1.1,1.56.73,2.93,1.87,4.1,3.43s2.07,3.46,2.7,5.71c.62,2.25.94,5.01.94,8.27v3.72h-22.68c0,4.75.96,8.37,2.87,10.88,1.91,2.51,4.56,3.76,7.94,3.76,1.21,0,2.4-.17,3.56-.51s2.21-.78,3.15-1.31c1-.56,1.83-1.1,2.52-1.62.68-.52,1.25-1.02,1.7-1.48h.32v7.48c-.64.32-1.45.71-2.4,1.19-.96.47-1.82.85-2.58,1.11-1.07.37-2.05.64-2.92.84s-1.97.29-3.29.29ZM226.79,31.86c-.04-1.85-.22-3.44-.53-4.78-.31-1.34-.76-2.47-1.35-3.39-.64-1.02-1.47-1.8-2.48-2.34s-2.25-.8-3.73-.8-2.71.27-3.74.82-1.96,1.34-2.8,2.39c-.82,1.07-1.45,2.26-1.88,3.56-.43,1.3-.7,2.82-.82,4.54h17.31Z"/>
      </g>
      <g>
        <path d="M14.33,164.78c-3.16,0-5.86-.41-8.07-1.22s-4.3-1.82-6.25-3.01v-9.05h.41c1.91,2.24,4.08,3.97,6.5,5.2,2.42,1.23,4.76,1.84,7,1.84,3.2,0,5.62-.83,7.27-2.5,1.64-1.67,2.46-3.86,2.46-6.59,0-2.17-.43-3.93-1.29-5.29-.86-1.36-2.23-2.37-4.1-3.03-1.35-.49-2.58-.89-3.69-1.2s-2.51-.74-4.19-1.28c-1.5-.49-2.85-1.11-4.04-1.86-1.19-.75-2.25-1.74-3.16-2.96-.9-1.19-1.6-2.6-2.1-4.22-.5-1.62-.75-3.49-.75-5.6,0-4.4,1.38-8.1,4.13-11.08,2.75-2.98,6.27-4.47,10.55-4.47,2.44,0,4.75.3,6.93.91s4.19,1.47,6.05,2.59v8.65h-.44c-1.39-1.58-3.16-2.96-5.33-4.14-2.17-1.18-4.44-1.77-6.83-1.77-2.7,0-4.87.78-6.53,2.35-1.66,1.57-2.49,3.63-2.49,6.19,0,2.31.49,4.15,1.46,5.51.98,1.36,2.39,2.36,4.25,2.99,1.23.41,2.73.88,4.51,1.41,1.78.52,3.25,1,4.42,1.44,3.01,1.14,5.2,2.87,6.59,5.18,1.39,2.31,2.08,5.16,2.08,8.54,0,2.12-.35,4.21-1.04,6.28s-1.67,3.82-2.91,5.26c-1.41,1.58-2.99,2.8-4.76,3.65s-3.98,1.28-6.63,1.28Z"/>
        <path d="M53.16,116.2h-6.27v-7.12h6.27v7.12ZM52.78,163.79h-5.51v-40.77h5.51v40.77Z"/>
        <path d="M110.02,163.79v-23.58c0-1.87-.06-3.61-.18-5.2-.12-1.59-.36-2.84-.73-3.74-.39-.97-.95-1.69-1.67-2.15-.72-.46-1.7-.69-2.93-.69-1.13,0-2.35.43-3.65,1.3-1.3.86-2.64,2.11-4.03,3.74.02.41.04.91.07,1.48.03.57.04,1.25.04,2.03v26.83h-5.51v-23.58c0-1.87-.06-3.61-.18-5.2-.12-1.59-.36-2.84-.73-3.74-.39-.97-.95-1.69-1.67-2.15-.72-.46-1.7-.69-2.93-.69s-2.44.46-3.75,1.39c-1.31.92-2.58,2.1-3.81,3.54v30.44h-5.51v-40.77h5.51v4.53c1.45-1.8,2.88-3.19,4.29-4.18s2.97-1.48,4.67-1.48c1.93,0,3.65.55,5.14,1.64s2.63,2.9,3.41,5.4c1.66-2.31,3.28-4.06,4.86-5.26s3.3-1.79,5.16-1.79c1.41,0,2.68.27,3.84.82,1.15.55,2.16,1.43,3.02,2.65.88,1.24,1.56,2.79,2.04,4.64s.72,4.17.72,6.97v26.83h-5.51Z"/>
        <path d="M162.71,142.33c0,6.79-1.3,12.2-3.91,16.22-2.61,4.03-5.9,6.04-9.89,6.04-1.62,0-3.06-.23-4.31-.69s-2.53-1.18-3.84-2.15v17.08h-5.51v-55.81h5.51v4.27c1.37-1.53,2.88-2.82,4.55-3.85,1.67-1.03,3.49-1.55,5.46-1.55,3.75,0,6.67,1.85,8.77,5.55s3.15,8.66,3.15,14.89ZM157.03,143.1c0-4.65-.6-8.25-1.79-10.82-1.19-2.57-3.12-3.85-5.8-3.85-1.56,0-3.07.43-4.53,1.3-1.46.86-2.84,1.98-4.14,3.34v23.1c1.45.88,2.68,1.47,3.71,1.79s2.2.47,3.53.47c2.85,0,5.07-1.3,6.65-3.91s2.37-6.41,2.37-11.42Z"/>
        <path d="M186.05,163.79h-5.51v-56.79h5.51v56.79Z"/>
        <path d="M220.34,164.74c-5.21,0-9.26-1.83-12.14-5.49-2.88-3.66-4.32-8.86-4.32-15.6s1.4-11.93,4.19-15.86c2.79-3.93,6.45-5.89,10.96-5.89,2.03,0,3.83.37,5.39,1.1s2.93,1.87,4.1,3.43,2.07,3.46,2.7,5.71c.62,2.25.94,5.01.94,8.27v3.72h-22.68c0,4.75.96,8.37,2.87,10.88s4.56,3.76,7.94,3.76c1.21,0,2.4-.17,3.56-.51s2.21-.78,3.15-1.31c1-.56,1.84-1.1,2.52-1.62.68-.52,1.25-1.02,1.7-1.48h.32v7.48c-.64.32-1.45.71-2.4,1.19s-1.82.85-2.58,1.11c-1.07.37-2.05.64-2.92.84s-1.97.29-3.3.29ZM226.79,138.86c-.04-1.85-.21-3.44-.53-4.78s-.76-2.47-1.35-3.39c-.64-1.02-1.47-1.8-2.48-2.34s-2.25-.8-3.74-.8-2.71.27-3.74.82-1.96,1.34-2.8,2.39c-.82,1.07-1.45,2.26-1.88,3.56-.43,1.3-.7,2.82-.82,4.54h17.31Z"/>
        <path d="M258.56,164.78c-2.19,0-4.23-.37-6.14-1.1s-3.48-1.51-4.73-2.34v-7.7h.29c.47.46,1.02.97,1.66,1.53s1.48,1.14,2.53,1.75c.94.54,1.97,1.01,3.09,1.42s2.29.62,3.5.62c.88,0,1.82-.13,2.81-.38s1.74-.58,2.23-.97c.68-.56,1.18-1.16,1.48-1.79s.45-1.58.45-2.85c0-1.63-.36-2.86-1.07-3.69s-1.98-1.52-3.79-2.08c-.7-.22-1.62-.47-2.75-.77s-2.18-.61-3.13-.95c-2.5-.9-4.32-2.29-5.45-4.18-1.13-1.88-1.7-4.17-1.7-6.84,0-3.67,1.11-6.67,3.34-8.98s5.19-3.47,8.88-3.47c1.82,0,3.64.28,5.48.84s3.38,1.27,4.63,2.12v7.34h-.29c-1.41-1.39-2.97-2.48-4.7-3.29s-3.47-1.2-5.23-1.2-3.35.47-4.6,1.42-1.88,2.38-1.88,4.31c0,1.7.37,2.97,1.11,3.81s1.93,1.53,3.57,2.06c.82.27,1.73.53,2.74.78s2.07.55,3.18.89c2.42.75,4.24,2.01,5.46,3.76s1.83,4.14,1.83,7.15c0,1.75-.28,3.41-.83,4.98s-1.37,2.91-2.45,4.03c-1.17,1.22-2.5,2.14-3.97,2.77s-3.33.95-5.55.95Z"/>
      </g>
      <g>
        <path d="M34.39,242.67c0,4.96-.81,9.44-2.42,13.43s-3.77,7.11-6.49,9.34c-2.21,1.73-4.45,2.88-6.72,3.47s-5.18.88-8.72.88H0v-54.35h9.93c4.1,0,7.32.38,9.65,1.15s4.32,1.82,5.96,3.16c2.81,2.31,4.99,5.38,6.53,9.22s2.31,8.4,2.31,13.71ZM28.36,242.57c0-4.19-.56-7.76-1.67-10.71s-2.76-5.26-4.95-6.92c-1.54-1.17-3.19-2.01-4.95-2.52s-3.95-.77-6.56-.77h-4.42v41.94h4.42c2.58,0,4.83-.26,6.77-.77s3.7-1.46,5.3-2.85c2.01-1.7,3.53-3.97,4.54-6.81,1.02-2.83,1.52-6.37,1.52-10.6Z"/>
        <path d="M66.46,270.74c-5.21,0-9.26-1.83-12.14-5.49-2.88-3.66-4.32-8.86-4.32-15.6s1.4-11.93,4.19-15.86c2.79-3.93,6.45-5.89,10.96-5.89,2.03,0,3.83.37,5.39,1.1s2.93,1.87,4.1,3.43,2.07,3.46,2.7,5.71c.62,2.25.94,5.01.94,8.27v3.72h-22.68c0,4.75.96,8.37,2.87,10.88s4.56,3.76,7.94,3.76c1.21,0,2.4-.17,3.56-.51s2.21-.78,3.15-1.31c1-.56,1.84-1.1,2.52-1.62.68-.52,1.25-1.02,1.7-1.48h.32v7.48c-.64.32-1.45.71-2.4,1.19s-1.82.85-2.58,1.11c-1.07.37-2.05.64-2.92.84s-1.97.29-3.3.29ZM72.91,244.86c-.04-1.85-.21-3.44-.53-4.78s-.76-2.47-1.35-3.39c-.64-1.02-1.47-1.8-2.48-2.34s-2.25-.8-3.74-.8-2.71.27-3.74.82-1.96,1.34-2.8,2.39c-.82,1.07-1.45,2.26-1.88,3.56-.43,1.3-.7,2.82-.82,4.54h17.31Z"/>
        <path d="M104.68,270.78c-2.19,0-4.23-.37-6.14-1.1s-3.48-1.51-4.73-2.34v-7.7h.29c.47.46,1.02.97,1.66,1.53s1.48,1.14,2.53,1.75c.94.54,1.97,1.01,3.09,1.42s2.29.62,3.5.62c.88,0,1.82-.13,2.81-.38s1.74-.58,2.23-.97c.68-.56,1.18-1.16,1.48-1.79s.45-1.58.45-2.85c0-1.63-.36-2.86-1.07-3.69s-1.98-1.52-3.79-2.08c-.7-.22-1.62-.47-2.75-.77s-2.18-.61-3.13-.95c-2.5-.9-4.32-2.29-5.45-4.18-1.13-1.88-1.7-4.17-1.7-6.84,0-3.67,1.11-6.67,3.34-8.98s5.19-3.47,8.88-3.47c1.82,0,3.64.28,5.48.84s3.38,1.27,4.63,2.12v7.34h-.29c-1.41-1.39-2.97-2.48-4.7-3.29s-3.47-1.2-5.23-1.2-3.35.47-4.6,1.42-1.88,2.38-1.88,4.31c0,1.7.37,2.97,1.11,3.81s1.93,1.53,3.57,2.06c.82.27,1.73.53,2.74.78s2.07.55,3.18.89c2.42.75,4.24,2.01,5.46,3.76s1.83,4.14,1.83,7.15c0,1.75-.28,3.41-.83,4.98s-1.37,2.91-2.45,4.03c-1.17,1.22-2.5,2.14-3.97,2.77s-3.33.95-5.55.95Z"/>
        <path d="M140.62,222.2h-6.27v-7.12h6.27v7.12ZM140.24,269.79h-5.51v-40.77h5.51v40.77Z"/>
        <path d="M161.5,276.33c.37.19.92.46,1.64.78s1.54.64,2.46.93c1.02.32,1.95.57,2.81.77s1.8.29,2.81.29c1.7,0,3.14-.28,4.32-.84s2.1-1.34,2.77-2.34c.62-1,1.06-2.15,1.32-3.47s.38-2.81.38-4.49v-3.58c-1.48,1.61-2.94,2.79-4.37,3.56s-3.21,1.15-5.36,1.15c-3.73,0-6.7-1.73-8.91-5.18s-3.31-8.42-3.31-14.89c0-3.38.38-6.38,1.14-9,.76-2.61,1.79-4.84,3.08-6.66,1.23-1.75,2.69-3.1,4.37-4.05s3.42-1.42,5.21-1.42c1.7,0,3.17.25,4.41.75,1.24.5,2.49,1.21,3.74,2.14l.32-1.75h5.19v36.14c0,6.91-1.21,11.98-3.63,15.22s-6.12,4.85-11.1,4.85c-1.6,0-3.24-.16-4.91-.47s-3.23-.74-4.67-1.28v-7.15h.29ZM180.01,258.74v-22.37c-1.37-.83-2.63-1.42-3.79-1.77-1.16-.35-2.32-.53-3.47-.53-2.79,0-4.99,1.28-6.59,3.83s-2.4,6.22-2.4,10.99.61,7.97,1.83,10.33,3.2,3.54,5.93,3.54c1.43,0,2.9-.35,4.41-1.06s2.88-1.69,4.09-2.96Z"/>
        <path d="M231.21,269.79h-5.51v-23.21c0-1.87-.07-3.62-.22-5.24-.15-1.62-.42-2.91-.83-3.89-.45-1.02-1.07-1.78-1.88-2.28-.8-.5-1.89-.75-3.28-.75s-2.78.46-4.23,1.37-2.88,2.1-4.26,3.56v30.44h-5.51v-40.77h5.51v4.53c1.64-1.83,3.26-3.22,4.86-4.2s3.29-1.46,5.07-1.46c3.22,0,5.74,1.32,7.56,3.96,1.82,2.64,2.72,6.47,2.72,11.48v26.46Z"/>
      </g>
    </g>
  </g>
</svg>