<?xml version="1.0" encoding="UTF-8"?>
<svg id="_レイヤー_2" data-name="レイヤー 2" xmlns="http://www.w3.org/2000/svg" viewBox="0 0 286.59 288.91">
  <g id="_レイヤー_1-2" data-name="レイヤー 1">
    <g>
      <g>
        <path d="M15.85,60.72c-3.34,0-6.27-.42-8.8-1.27s-4.88-1.89-7.05-3.15v-13.58h1c2.19,2.43,4.6,4.3,7.24,5.6,2.64,1.3,5.2,1.96,7.68,1.96.62,0,1.45-.09,2.48-.27s1.85-.46,2.48-.84c.76-.43,1.41-1.04,1.93-1.82.53-.78.79-1.81.79-3.09,0-1.43-.43-2.59-1.29-3.49s-1.88-1.55-3.08-1.96c-1.48-.51-3.07-1-4.76-1.46s-3.27-1.02-4.73-1.69c-3.38-1.56-5.8-3.66-7.27-6.29S.26,23.45.26,19.49C.26,14.14,1.99,9.81,5.45,6.5c3.46-3.31,7.77-4.97,12.95-4.97,2.6,0,5.18.34,7.75,1.04s4.87,1.62,6.9,2.8v13.04h-.97c-1.62-1.82-3.6-3.35-5.93-4.6s-4.73-1.88-7.19-1.88c-.96,0-1.82.09-2.58.27-.76.18-1.56.52-2.4,1.04-.68.41-1.27,1.02-1.77,1.82-.5.8-.75,1.71-.75,2.7,0,1.46.4,2.61,1.19,3.47.79.86,2.32,1.63,4.58,2.32,1.46.43,2.88.86,4.23,1.27s2.81.97,4.35,1.69c3.03,1.43,5.28,3.36,6.75,5.77,1.47,2.42,2.21,5.61,2.21,9.57,0,5.68-1.7,10.24-5.11,13.69s-8.01,5.18-13.81,5.18Z"/>
        <path d="M59.33,10.47h-10.84V0h10.84v10.47ZM59.04,59.68h-10.25V16.61h10.25v43.08Z"/>
        <path d="M115.21,59.68v-21.52c0-2.12-.03-3.91-.09-5.37-.06-1.46-.23-2.65-.53-3.57s-.75-1.59-1.36-2.01-1.48-.63-2.59-.63c-.78,0-1.55.22-2.31.67-.76.45-1.59,1.08-2.49,1.9v30.53h-10.31v-21.52c0-2.1-.03-3.88-.1-5.35-.07-1.47-.25-2.67-.54-3.59s-.75-1.59-1.36-2.01-1.47-.63-2.56-.63c-.84,0-1.66.26-2.46.77-.8.51-1.58,1.11-2.34,1.8v30.53h-10.25V16.61h10.25v4.76c1.68-1.87,3.26-3.32,4.75-4.37,1.48-1.05,3.15-1.57,5.01-1.57,2.01,0,3.78.63,5.3,1.88,1.52,1.25,2.69,3.12,3.49,5.6,1.97-2.4,3.83-4.25,5.58-5.54,1.75-1.29,3.52-1.94,5.32-1.94,1.52,0,2.89.32,4.1.96,1.21.64,2.24,1.6,3.08,2.88.92,1.38,1.61,3.02,2.07,4.93s.69,4.39.69,7.46v28.04h-10.31Z"/>
        <path d="M174.36,37.55c0,6.88-1.33,12.43-4,16.65-2.67,4.22-5.95,6.33-9.86,6.33-1.64,0-3.07-.24-4.28-.73s-2.5-1.24-3.87-2.26v17.95h-10.25V16.61h10.25v4.49c1.5-1.69,3.04-3.06,4.6-4.1,1.56-1.05,3.37-1.57,5.42-1.57,3.81,0,6.76,1.98,8.85,5.95s3.13,9.36,3.13,16.19ZM163.88,37.82c0-4.19-.49-7.24-1.48-9.13s-2.52-2.84-4.61-2.84c-.92,0-1.83.19-2.74.58-.91.38-1.8.96-2.68,1.73v21.67c.55.31,1.15.52,1.8.65.65.13,1.43.19,2.33.19,2.5,0,4.36-1.07,5.57-3.2,1.21-2.13,1.82-5.35,1.82-9.65Z"/>
        <path d="M199.12,59.68h-10.25V0h10.25v59.68Z"/>
        <path d="M232.82,60.83c-6.21,0-10.97-1.94-14.28-5.83-3.31-3.89-4.97-9.42-4.97-16.61s1.54-12.64,4.63-16.84c3.09-4.19,7.4-6.29,12.95-6.29,5.04,0,8.83,1.78,11.37,5.33,2.54,3.55,3.81,8.64,3.81,15.27v4.83h-22.47c.1,2,.42,3.66.97,5.01s1.27,2.41,2.17,3.2c.88.79,1.9,1.36,3.08,1.71,1.17.34,2.45.52,3.84.52,1.19,0,2.36-.17,3.52-.52,1.15-.35,2.21-.8,3.16-1.36.84-.49,1.62-1.01,2.33-1.57s1.29-1.06,1.74-1.5h1.08v11.08c-.84.44-1.61.84-2.3,1.21s-1.65.75-2.86,1.13c-1.11.38-2.26.68-3.44.9-1.18.22-2.62.33-4.32.33ZM236.22,32.6c-.06-2.84-.56-5-1.51-6.48-.95-1.48-2.4-2.22-4.35-2.22s-3.55.78-4.67,2.34c-1.12,1.56-1.74,3.68-1.86,6.37h12.39Z"/>
      </g>
      <g>
        <path d="M15.85,168.72c-3.34,0-6.27-.42-8.8-1.27s-4.88-1.89-7.05-3.15v-13.58h1c2.19,2.43,4.6,4.3,7.24,5.6,2.64,1.3,5.2,1.96,7.68,1.96.62,0,1.45-.09,2.48-.27s1.85-.46,2.48-.84c.76-.43,1.41-1.04,1.93-1.82.53-.78.79-1.81.79-3.09,0-1.43-.43-2.59-1.29-3.49s-1.88-1.55-3.08-1.96c-1.48-.51-3.07-1-4.76-1.46s-3.27-1.02-4.73-1.69c-3.38-1.56-5.8-3.66-7.27-6.29s-2.2-5.93-2.2-9.9c0-5.34,1.73-9.67,5.19-12.98,3.46-3.31,7.77-4.97,12.95-4.97,2.6,0,5.18.34,7.75,1.04s4.87,1.62,6.9,2.8v13.04h-.97c-1.62-1.82-3.6-3.35-5.93-4.6s-4.73-1.88-7.19-1.88c-.96,0-1.82.09-2.58.27-.76.18-1.56.52-2.4,1.04-.68.41-1.27,1.02-1.77,1.82-.5.8-.75,1.71-.75,2.7,0,1.46.4,2.61,1.19,3.47.79.86,2.32,1.63,4.58,2.32,1.46.43,2.88.86,4.23,1.27s2.81.97,4.35,1.69c3.03,1.43,5.28,3.36,6.75,5.77,1.47,2.42,2.21,5.61,2.21,9.57,0,5.68-1.7,10.24-5.11,13.69s-8.01,5.18-13.81,5.18Z"/>
        <path d="M59.33,118.47h-10.84v-10.47h10.84v10.47ZM59.04,167.68h-10.25v-43.08h10.25v43.08Z"/>
        <path d="M115.21,167.68v-21.52c0-2.12-.03-3.91-.09-5.37-.06-1.46-.23-2.65-.53-3.57s-.75-1.59-1.36-2.01-1.48-.63-2.59-.63c-.78,0-1.55.22-2.31.67-.76.45-1.59,1.08-2.49,1.9v30.53h-10.31v-21.52c0-2.1-.03-3.88-.1-5.35-.07-1.47-.25-2.67-.54-3.59s-.75-1.59-1.36-2.01-1.47-.63-2.56-.63c-.84,0-1.66.26-2.46.77-.8.51-1.58,1.11-2.34,1.8v30.53h-10.25v-43.08h10.25v4.76c1.68-1.87,3.26-3.32,4.75-4.37,1.48-1.05,3.15-1.57,5.01-1.57,2.01,0,3.78.63,5.3,1.88,1.52,1.25,2.69,3.12,3.49,5.6,1.97-2.4,3.83-4.25,5.58-5.54,1.75-1.29,3.52-1.94,5.32-1.94,1.52,0,2.89.32,4.1.96,1.21.64,2.24,1.6,3.08,2.88.92,1.38,1.61,3.02,2.07,4.93s.69,4.39.69,7.46v28.04h-10.31Z"/>
        <path d="M174.36,145.55c0,6.88-1.33,12.43-4,16.65-2.67,4.22-5.95,6.33-9.86,6.33-1.64,0-3.07-.24-4.28-.73s-2.5-1.24-3.87-2.26v17.95h-10.25v-58.88h10.25v4.49c1.5-1.69,3.04-3.06,4.6-4.1,1.56-1.05,3.37-1.57,5.42-1.57,3.81,0,6.76,1.98,8.85,5.95s3.13,9.36,3.13,16.19ZM163.88,145.82c0-4.19-.49-7.24-1.48-9.13s-2.52-2.84-4.61-2.84c-.92,0-1.83.19-2.74.58-.91.38-1.8.96-2.68,1.73v21.67c.55.31,1.15.52,1.8.65.65.13,1.43.19,2.33.19,2.5,0,4.36-1.07,5.57-3.2,1.21-2.13,1.82-5.35,1.82-9.65Z"/>
        <path d="M199.12,167.68h-10.25v-59.68h10.25v59.68Z"/>
        <path d="M232.82,168.83c-6.21,0-10.97-1.94-14.28-5.83-3.31-3.89-4.97-9.42-4.97-16.61s1.54-12.64,4.63-16.84c3.09-4.19,7.4-6.29,12.95-6.29,5.04,0,8.83,1.78,11.37,5.33,2.54,3.55,3.81,8.64,3.81,15.27v4.83h-22.47c.1,2,.42,3.66.97,5.01s1.27,2.41,2.17,3.2c.88.79,1.9,1.36,3.08,1.71,1.17.34,2.45.52,3.84.52,1.19,0,2.36-.17,3.52-.52,1.15-.35,2.21-.8,3.16-1.36.84-.49,1.62-1.01,2.33-1.57s1.29-1.06,1.74-1.5h1.08v11.08c-.84.44-1.61.84-2.3,1.21s-1.65.75-2.86,1.13c-1.11.38-2.26.68-3.44.9-1.18.22-2.62.33-4.32.33ZM236.22,140.6c-.06-2.84-.56-5-1.51-6.48-.95-1.48-2.4-2.22-4.35-2.22s-3.55.78-4.67,2.34c-1.12,1.56-1.74,3.68-1.86,6.37h12.39Z"/>
        <path d="M270.62,168.87c-2.42,0-4.71-.35-6.87-1.04s-3.94-1.5-5.35-2.42v-11.35h.85c.49.49,1.04,1.02,1.67,1.61.62.59,1.49,1.2,2.61,1.84.96.59,2.04,1.09,3.24,1.52s2.5.63,3.91.63,2.72-.29,3.82-.88c1.1-.59,1.66-1.52,1.66-2.8,0-1-.25-1.75-.76-2.26s-1.49-1-2.96-1.46c-.78-.25-1.77-.53-2.96-.82s-2.25-.63-3.16-1.02c-2.58-1.05-4.52-2.6-5.82-4.66-1.3-2.06-1.95-4.76-1.95-8.11,0-1.92.34-3.73,1.01-5.43.67-1.7,1.67-3.22,2.97-4.54,1.31-1.3,2.92-2.34,4.85-3.11s4.1-1.15,6.52-1.15,4.42.3,6.36.9,3.56,1.32,4.89,2.17v10.89h-.82c-.35-.36-.91-.84-1.67-1.44-.76-.6-1.5-1.12-2.23-1.55-.86-.51-1.82-.93-2.89-1.27-1.06-.33-2.15-.5-3.27-.5-1.48,0-2.74.33-3.76,1s-1.54,1.55-1.54,2.65c0,.97.25,1.74.76,2.3s1.61,1.11,3.31,1.65c.88.28,1.89.56,3.03.82s2.24.63,3.3,1.09c2.36,1,4.16,2.46,5.38,4.39s1.83,4.49,1.83,7.69c0,2.02-.36,3.95-1.08,5.77s-1.75,3.37-3.08,4.62c-1.41,1.36-3.06,2.4-4.97,3.15-1.9.74-4.18,1.11-6.84,1.11Z"/>
      </g>
      <g>
        <path d="M38.96,244.18c0,5.32-.89,10.08-2.67,14.29-1.78,4.21-4.02,7.44-6.74,9.69-2.27,1.92-4.73,3.15-7.4,3.7s-5.5.82-8.51.82H0v-57.12h13.54c3.07,0,5.94.26,8.61.77s5.19,1.75,7.53,3.72c2.87,2.4,5.14,5.65,6.8,9.72,1.66,4.08,2.49,8.88,2.49,14.4ZM27.71,244.07c0-3.76-.49-6.97-1.48-9.65s-2.5-4.76-4.56-6.27c-1.48-1.07-3.04-1.66-4.67-1.76-1.63-.1-3.58-.15-5.84-.15h-.21v35.75h.21c2.46,0,4.54-.06,6.23-.17,1.69-.12,3.3-.8,4.82-2.05,1.8-1.48,3.16-3.53,4.1-6.14s1.41-5.79,1.41-9.55Z"/>
        <path d="M70.7,273.83c-6.21,0-10.97-1.94-14.28-5.83-3.31-3.89-4.97-9.42-4.97-16.61s1.54-12.64,4.63-16.84c3.09-4.19,7.4-6.29,12.95-6.29,5.04,0,8.83,1.78,11.37,5.33,2.54,3.55,3.81,8.64,3.81,15.27v4.83h-22.47c.1,2,.42,3.66.97,5.01s1.27,2.41,2.17,3.2c.88.79,1.9,1.36,3.08,1.71,1.17.34,2.45.52,3.84.52,1.19,0,2.36-.17,3.52-.52,1.15-.35,2.21-.8,3.16-1.36.84-.49,1.62-1.01,2.33-1.57s1.29-1.06,1.74-1.5h1.08v11.08c-.84.44-1.61.84-2.3,1.21s-1.65.75-2.86,1.13c-1.11.38-2.26.68-3.44.9-1.18.22-2.62.33-4.32.33ZM74.1,245.6c-.06-2.84-.56-5-1.51-6.48-.95-1.48-2.4-2.22-4.35-2.22s-3.55.78-4.67,2.34c-1.12,1.56-1.74,3.68-1.86,6.37h12.39Z"/>
        <path d="M108.5,273.87c-2.42,0-4.71-.35-6.87-1.04s-3.94-1.5-5.35-2.42v-11.35h.85c.49.49,1.04,1.02,1.67,1.61.62.59,1.49,1.2,2.61,1.84.96.59,2.04,1.09,3.24,1.52s2.5.63,3.91.63,2.72-.29,3.82-.88c1.1-.59,1.66-1.52,1.66-2.8,0-1-.25-1.75-.76-2.26s-1.49-1-2.96-1.46c-.78-.25-1.77-.53-2.96-.82s-2.25-.63-3.16-1.02c-2.58-1.05-4.52-2.6-5.82-4.66-1.3-2.06-1.95-4.76-1.95-8.11,0-1.92.34-3.73,1.01-5.43.67-1.7,1.67-3.22,2.97-4.54,1.31-1.3,2.92-2.34,4.85-3.11s4.1-1.15,6.52-1.15,4.42.3,6.36.9,3.56,1.32,4.89,2.17v10.89h-.82c-.35-.36-.91-.84-1.67-1.44-.76-.6-1.5-1.12-2.23-1.55-.86-.51-1.82-.93-2.89-1.27-1.06-.33-2.15-.5-3.27-.5-1.48,0-2.74.33-3.76,1s-1.54,1.55-1.54,2.65c0,.97.25,1.74.76,2.3s1.61,1.11,3.31,1.65c.88.28,1.89.56,3.03.82s2.24.63,3.3,1.09c2.36,1,4.16,2.46,5.38,4.39s1.83,4.49,1.83,7.69c0,2.02-.36,3.95-1.08,5.77s-1.75,3.37-3.08,4.62c-1.41,1.36-3.06,2.4-4.97,3.15-1.9.74-4.18,1.11-6.84,1.11Z"/>
        <path d="M148.9,223.47h-10.84v-10.47h10.84v10.47ZM148.61,272.68h-10.25v-43.08h10.25v43.08Z"/>
        <path d="M195.38,267.74c0,3.99-.44,7.38-1.32,10.17-.88,2.79-2.08,4.96-3.6,6.52-1.52,1.59-3.35,2.73-5.48,3.43-2.13.7-4.49,1.05-7.09,1.05-2.19,0-4.26-.19-6.23-.56s-3.67-.8-5.11-1.29v-10.78h1.2c.51.26,1.11.54,1.8.84.69.31,1.39.59,2.09.84.84.28,1.66.51,2.46.69s1.62.27,2.46.27c1.74,0,3.19-.24,4.35-.71,1.16-.47,2.04-1.14,2.62-2.01.59-.9,1-1.95,1.23-3.17.23-1.21.35-2.74.35-4.58v-.8c-1.15,1.33-2.49,2.4-4,3.2s-3.07,1.21-4.67,1.21c-4.26,0-7.54-1.82-9.86-5.45-2.31-3.63-3.47-9.15-3.47-16.57,0-3.38.36-6.41,1.07-9.09.71-2.69,1.7-4.97,2.97-6.87,1.21-1.82,2.68-3.22,4.39-4.2s3.51-1.48,5.36-1.48c1.68,0,3.18.28,4.51.84s2.54,1.32,3.63,2.26l.38-1.92h9.93v38.13ZM185.12,259.11v-19.52c-.51-.31-1.13-.56-1.88-.77-.74-.2-1.48-.31-2.23-.31-2.46,0-4.31,1.04-5.55,3.13-1.24,2.08-1.86,4.99-1.86,8.73,0,1.87.09,3.45.28,4.74s.53,2.44,1.04,3.43c.49.97,1.13,1.71,1.92,2.21.79.5,1.8.75,3.03.75.92,0,1.82-.21,2.71-.61.89-.41,1.73-1,2.53-1.76Z"/>
        <path d="M243.05,272.68h-10.31v-21.37c0-1.74-.05-3.47-.16-5.2-.11-1.73-.31-3-.6-3.82-.35-.97-.86-1.67-1.52-2.09s-1.55-.63-2.67-.63c-.84,0-1.69.21-2.55.61-.86.41-1.78,1.06-2.75,1.96v30.53h-10.25v-43.08h10.25v4.76c1.68-1.87,3.32-3.32,4.91-4.37,1.59-1.05,3.35-1.57,5.29-1.57,3.36,0,5.93,1.39,7.71,4.16,1.78,2.78,2.67,6.8,2.67,12.06v28.04Z"/>
      </g>
    </g>
  </g>
</svg>