<?xml version="1.0" encoding="UTF-8"?>
<svg id="_レイヤー_2" data-name="レイヤー 2" xmlns="http://www.w3.org/2000/svg" viewBox="0 0 564.82 42.72">
  <g id="_レイヤー_1-2" data-name="レイヤー 1">
    <g>
      <path d="M9.74,23.04c-2.83-1.87-6.86-3.98-9.74-5.28l2.26-3.17c3.12,1.3,6.82,2.98,9.84,4.75l-2.35,3.7ZM8.98,39.27c-1.34.67-1.92.96-2.5,1.63-.34.38-.53.58-.77.58-.72,0-3.46-4.94-3.46-4.94,0-.34.77-.05,2.26-.48,10.51-3.36,23.62-12.24,30.29-20.64.86,1.15,1.78,2.35,2.64,3.17-8.06,8.64-18,15.79-28.47,20.69ZM15.55,13.15c-2.78-2.26-6.91-4.66-9.65-5.9l2.59-2.93c3.07,1.3,6.53,3.22,9.75,5.42l-2.69,3.41Z"/>
      <path d="M55.54,38.5c-1.34.62-1.82.91-2.4,1.44-.48.43-.72.67-.96.67-.48,0-3.31-4.66-3.31-4.99s.77-.14,2.02-.48c10.85-3.02,24.67-11.81,31.59-20.02.58.96,1.58,2.3,2.35,3.36-7.39,7.97-19.35,15.75-29.28,20.02ZM58.61,15.7c-2.5-2.59-6.53-5.95-9.22-7.54l3.02-2.78c2.78,1.68,6.58,4.46,9.22,6.96l-3.02,3.36Z"/>
      <path d="M94.94,9.7c1.63.1,4.22.19,7.25.19,6.72,0,15.75-.24,21.84-.53.77-.05.86-.53,1.3-.53.29,0,4.27,2.59,4.27,3.07,0,.43-1.01.77-1.68,2.54-4.61,12.67-12.58,21.41-25.3,27.65-.86-.91-2.54-2.45-3.7-3.31,12.43-3.98,22.75-16.13,24.67-25.73-6.91.14-23.19.43-28.61,1.15l-.05-4.51ZM131.23,8.83c-2.45,0-4.42-1.97-4.42-4.42s1.97-4.42,4.42-4.42,4.42,1.97,4.42,4.42-1.97,4.42-4.42,4.42ZM131.23,2.06c-1.3,0-2.35,1.06-2.35,2.35s1.06,2.35,2.35,2.35,2.35-1.06,2.35-2.35-1.06-2.35-2.35-2.35Z"/>
      <path d="M149.57,7.78c4.9.53,4.94.53,4.94.91,0,.19-.1.48-.29.82-.34.62-.38.96-.43,1.73-.34,8.83.1,19.68-8.26,28.47-1.44-.91-3.07-1.68-4.61-2.26,7.39-5.18,8.74-14.98,8.74-22.32,0-2.26-.14-4.32-.24-5.9-.05-.58-.24-1.01-.24-1.25,0-.14.05-.19.24-.19h.14ZM159.65,6.24c4.8.19,5.18.24,5.18.62,0,.19-.1.43-.29.72-.53.86-.86,1.44-.86,16.85,0,3.36.05,6.48.05,8.4,4.85-2.78,12.39-9.17,16.99-14.69.77,1.01,1.68,2.06,2.54,2.93-4.99,5.47-11.52,11.47-18.24,16.08-1.39,1.01-1.63,1.87-2.11,1.87-.72,0-3.74-3.55-3.74-3.55,0-.29.48-.43.53-1.39.05-4.37.14-9.46.14-14.11,0-5.04-.1-9.65-.38-12.58-.05-.34-.24-.72-.24-.91,0-.14.1-.24.34-.24h.1Z"/>
      <path d="M201.74,23.04c-2.83-1.87-6.86-3.98-9.74-5.28l2.26-3.17c3.12,1.3,6.82,2.98,9.84,4.75l-2.35,3.7ZM200.98,39.27c-1.34.67-1.92.96-2.5,1.63-.34.38-.53.58-.77.58-.72,0-3.46-4.94-3.46-4.94,0-.34.77-.05,2.26-.48,10.51-3.36,23.62-12.24,30.29-20.64.86,1.15,1.78,2.35,2.64,3.17-8.06,8.64-18,15.79-28.47,20.69ZM207.55,13.15c-2.78-2.26-6.91-4.66-9.65-5.9l2.59-2.93c3.07,1.3,6.53,3.22,9.75,5.42l-2.69,3.41Z"/>
      <path d="M247.54,38.5c-1.34.62-1.82.91-2.4,1.44-.48.43-.72.67-.96.67-.48,0-3.31-4.66-3.31-4.99s.77-.14,2.02-.48c10.85-3.02,24.67-11.81,31.59-20.02.58.96,1.58,2.3,2.35,3.36-7.39,7.97-19.35,15.75-29.28,20.02ZM250.61,15.7c-2.5-2.59-6.53-5.95-9.22-7.54l3.02-2.78c2.78,1.68,6.58,4.46,9.22,6.96l-3.02,3.36Z"/>
      <path d="M286.94,9.7c1.63.1,4.22.19,7.25.19,6.72,0,15.75-.24,21.84-.53.77-.05.86-.53,1.3-.53.29,0,4.27,2.59,4.27,3.07,0,.43-1.01.77-1.68,2.54-4.61,12.67-12.58,21.41-25.3,27.65-.86-.91-2.54-2.45-3.7-3.31,12.43-3.98,22.75-16.13,24.67-25.73-6.91.14-23.19.43-28.61,1.15l-.05-4.51ZM323.23,8.83c-2.45,0-4.42-1.97-4.42-4.42s1.97-4.42,4.42-4.42,4.42,1.97,4.42,4.42-1.97,4.42-4.42,4.42ZM323.23,2.06c-1.3,0-2.35,1.06-2.35,2.35s1.06,2.35,2.35,2.35,2.35-1.06,2.35-2.35-1.06-2.35-2.35-2.35Z"/>
      <path d="M341.57,7.78c4.9.53,4.94.53,4.94.91,0,.19-.1.48-.29.82-.34.62-.38.96-.43,1.73-.34,8.83.1,19.68-8.26,28.47-1.44-.91-3.07-1.68-4.61-2.26,7.39-5.18,8.74-14.98,8.74-22.32,0-2.26-.14-4.32-.24-5.9-.05-.58-.24-1.01-.24-1.25,0-.14.05-.19.24-.19h.14ZM351.65,6.24c4.8.19,5.18.24,5.18.62,0,.19-.1.43-.29.72-.53.86-.86,1.44-.86,16.85,0,3.36.05,6.48.05,8.4,4.85-2.78,12.39-9.17,16.99-14.69.77,1.01,1.68,2.06,2.54,2.93-4.99,5.47-11.52,11.47-18.24,16.08-1.39,1.01-1.63,1.87-2.11,1.87-.72,0-3.74-3.55-3.74-3.55,0-.29.48-.43.53-1.39.05-4.37.14-9.46.14-14.11,0-5.04-.1-9.65-.38-12.58-.05-.34-.24-.72-.24-.91,0-.14.1-.24.34-.24h.1Z"/>
      <path d="M419.19,20.21c-1.44-.1-4.56-.14-8.45-.14-2.16,0-4.51,0-6.96.05-.19,10.13-3.17,17.47-12.1,22.61-1.06-.91-2.83-2.35-4.13-3.12,9.6-3.74,12.05-11.28,12.05-18.24v-1.2c-7.54.14-15.12.38-17.67.62l-.05-4.22c1.44.1,4.66.14,8.59.14,10.08,0,25.06-.29,28.66-.67l.05,4.18ZM411.51,9.99c-1.44-.19-4.51-.24-7.97-.24-5.76,0-12.63.19-15.12.53l-.1-4.18c1.39.14,4.03.19,7.1.19,5.95,0,13.44-.24,15.99-.58l.1,4.27ZM417.17,14.16c-1.1-1.58-2.59-3.26-3.89-4.66l2.11-1.49c1.34,1.3,2.93,2.93,4.08,4.42l-2.3,1.73ZM420.82,11.76c-1.15-1.54-2.5-3.26-3.94-4.51l2.11-1.54c1.3,1.2,2.98,2.83,4.13,4.32l-2.3,1.73Z"/>
      <path d="M468.24,17.43c-1.54-.1-5.28-.14-9.89-.14v.34c0,12.38-3.89,19.58-13.73,24.96-1.06-1.3-2.3-2.4-3.46-3.41,10.22-3.65,13.3-10.85,13.3-21.51v-.38c-3.74.05-7.78.14-11.67.24,0,4.32.14,8.69.38,10.71l-4.51.1c.19-2.02.34-6.29.34-10.75-4.37.14-7.97.29-9.36.48l-.05-4.27c1.34.14,4.85.19,9.41.19-.05-3.89-.19-7.39-.48-8.74-.1-.43-.24-.77-.24-.96,0-.14.05-.19.29-.19h.1c4.7.19,5.23.24,5.23.67,0,.14-.05.29-.19.48-.62.82-.67.96-.91,8.74,3.65,0,7.68-.05,11.67-.19,0-3.31-.05-6.77-.48-8.64-.1-.34-.24-.67-.24-.91,0-.14.05-.24.29-.24h.1c5.04.19,5.33.29,5.33.62,0,.19-.1.38-.29.72-.53.86-.67,1.25-.82,8.4,4.18-.14,8.21-.29,9.84-.53l.05,4.22ZM464.5,11.52c-1.25-1.44-2.88-3.02-4.32-4.22l1.92-1.73c1.44,1.1,3.17,2.59,4.51,3.94l-2.11,2.02ZM467.91,8.69c-1.3-1.39-2.88-2.88-4.42-4.08l1.92-1.73c1.44,1.06,3.26,2.5,4.56,3.84l-2.06,1.97Z"/>
      <path d="M496.95,41.04c.38-2.78.58-10.37.58-17.19,0-2.16,0-4.27-.05-6.1-4.85,3.5-10.18,6.86-16.32,10.08-.67-.96-2.06-2.45-2.98-3.36,10.18-4.27,23.91-14.02,29.28-21.12.58-.82.58-1.54.91-1.54.38,0,4.61,3.36,4.61,3.79,0,.29-.34.53-.86.67-1.2.34-1.63.67-2.59,1.54-2.5,2.3-5.18,4.61-8.02,6.86-.14,1.78-.19,5.04-.19,8.74,0,6.62.19,14.59.43,17.47l-4.8.14Z"/>
      <path d="M535.54,38.5c-1.34.62-1.82.91-2.4,1.44-.48.43-.72.67-.96.67-.48,0-3.31-4.66-3.31-4.99s.77-.14,2.02-.48c10.85-3.02,24.67-11.81,31.59-20.02.58.96,1.58,2.3,2.35,3.36-7.39,7.97-19.35,15.75-29.28,20.02ZM538.61,15.7c-2.5-2.59-6.53-5.95-9.22-7.54l3.02-2.78c2.78,1.68,6.58,4.46,9.22,6.96l-3.02,3.36Z"/>
    </g>
  </g>
</svg>