<?xml version="1.0" encoding="UTF-8"?>
<svg id="_レイヤー_2" data-name="レイヤー 2" xmlns="http://www.w3.org/2000/svg" viewBox="0 0 116.59 129.73">
  <g id="_レイヤー_1-2" data-name="レイヤー 1">
    <g>
      <g>
        <path d="M16.8,10.13h-4.9v-1.1c0-1.12-.26-2.09-.79-2.9-.53-.82-1.42-1.22-2.66-1.22-.67,0-1.22.13-1.63.38-.42.26-.75.58-1.01.96-.26.42-.43.89-.53,1.42-.1.53-.14,1.08-.14,1.66,0,.67.02,1.23.07,1.68.05.45.17.85.36,1.2.19.35.47.66.84.91.37.26.87.51,1.51.77l3.74,1.49c1.09.42,1.97.9,2.64,1.46.67.56,1.2,1.21,1.58,1.94.35.77.59,1.64.72,2.62.13.98.19,2.09.19,3.34,0,1.44-.14,2.78-.43,4.01-.29,1.23-.75,2.28-1.39,3.14-.67.9-1.55,1.6-2.64,2.11-1.09.51-2.42.77-3.98.77-1.18,0-2.29-.21-3.31-.62-1.02-.42-1.9-.99-2.64-1.73-.74-.74-1.32-1.59-1.75-2.57-.43-.98-.65-2.04-.65-3.19v-1.82h4.9v1.54c0,.9.26,1.7.79,2.42.53.72,1.42,1.08,2.66,1.08.83,0,1.48-.12,1.94-.36.46-.24.82-.58,1.08-1.03.26-.45.41-.98.46-1.61.05-.62.07-1.32.07-2.09,0-.9-.03-1.63-.1-2.21-.06-.58-.19-1.04-.38-1.39-.22-.35-.52-.64-.89-.86-.37-.22-.86-.46-1.46-.72l-3.5-1.44c-2.11-.86-3.53-2.01-4.25-3.43-.72-1.42-1.08-3.21-1.08-5.35,0-1.28.18-2.5.53-3.65.35-1.15.88-2.14,1.58-2.98.67-.83,1.53-1.5,2.57-1.99,1.04-.5,2.28-.74,3.72-.74,1.22,0,2.33.22,3.34.67,1.01.45,1.88,1.04,2.62,1.78,1.47,1.54,2.21,3.3,2.21,5.28v2.4Z"/>
        <path d="M20.16,34.46V10.13h4.9v24.34h-4.9Z"/>
        <path d="M29.09,34.46V10.13h4.9v2.35h.1c.51-.77,1.13-1.4,1.85-1.9.72-.5,1.64-.74,2.76-.74,1.06,0,1.94.26,2.64.77.7.51,1.28,1.07,1.73,1.68.61-.67,1.28-1.25,2.02-1.73.74-.48,1.76-.72,3.07-.72.61,0,1.23.1,1.87.31.64.21,1.22.55,1.73,1.03.51.48.93,1.1,1.25,1.85.32.75.48,1.67.48,2.76v18.67h-4.9v-16.85c0-.9-.21-1.6-.62-2.11-.42-.51-1.01-.77-1.78-.77-.93,0-1.57.29-1.92.86-.35.58-.53,1.41-.53,2.5v16.37h-4.9v-16.85c0-.9-.21-1.6-.62-2.11-.42-.51-1.01-.77-1.78-.77-.93,0-1.57.29-1.92.86-.35.58-.53,1.41-.53,2.5v16.37h-4.9Z"/>
        <path d="M57.5,44.3V10.13h4.9v2.21c.61-.7,1.23-1.3,1.87-1.78.64-.48,1.57-.72,2.78-.72,2.02,0,3.44.77,4.27,2.3.29.54.5,1.22.62,2.02.13.8.19,1.87.19,3.22v9.26c0,1.79-.05,3.09-.14,3.89-.19,1.6-.93,2.8-2.21,3.6-.64.42-1.57.62-2.78.62-.96,0-1.82-.22-2.57-.65-.75-.43-1.4-1.05-1.94-1.85h-.1v12.05h-4.9ZM67.25,18.05c0-.99-.19-1.79-.58-2.4-.38-.61-.99-.91-1.82-.91-.74,0-1.33.28-1.78.84-.45.56-.67,1.29-.67,2.18v9.46c0,.77.23,1.4.7,1.9.46.5,1.05.74,1.75.74.93,0,1.56-.29,1.9-.86.34-.58.5-1.25.5-2.02v-8.93Z"/>
        <path d="M75.89.29h4.9v27.31c0,.93.17,1.56.5,1.9.34.34.97.55,1.9.65v4.61c-1.12,0-2.13-.09-3.02-.26-.9-.17-1.66-.52-2.3-1.03-.64-.48-1.13-1.16-1.46-2.04s-.5-2.04-.5-3.48V.29Z"/>
        <path d="M99.26,24.14h-9.7v3.31c0,.77.22,1.36.65,1.78.43.42,1.02.62,1.75.62.93,0,1.54-.27,1.85-.82.3-.54.49-1.09.55-1.63h4.9c0,2.14-.66,3.87-1.97,5.18-.64.67-1.41,1.2-2.3,1.58-.9.38-1.9.58-3.02.58-1.54,0-2.84-.32-3.91-.96s-1.9-1.49-2.47-2.54c-.35-.64-.59-1.38-.72-2.21-.13-.83-.19-1.74-.19-2.74v-8.02c0-.99.06-1.9.19-2.74.13-.83.37-1.57.72-2.21.58-1.06,1.4-1.9,2.47-2.54,1.07-.64,2.38-.96,3.91-.96,1.12,0,2.14.19,3.05.58.91.38,1.69.91,2.33,1.58,1.28,1.44,1.92,3.25,1.92,5.42v6.72ZM89.57,20.3h4.8v-2.78c0-.93-.22-1.62-.65-2.09-.43-.46-1.02-.7-1.75-.7s-1.32.23-1.75.7c-.43.46-.65,1.16-.65,2.09v2.78Z"/>
      </g>
      <g>
        <path d="M16.8,52.7h-4.9v-1.1c0-1.12-.26-2.09-.79-2.9-.53-.82-1.42-1.22-2.66-1.22-.67,0-1.22.13-1.63.38-.42.26-.75.58-1.01.96-.26.42-.43.89-.53,1.42-.1.53-.14,1.08-.14,1.66,0,.67.02,1.23.07,1.68.05.45.17.85.36,1.2.19.35.47.66.84.91.37.26.87.51,1.51.77l3.74,1.49c1.09.42,1.97.9,2.64,1.46.67.56,1.2,1.21,1.58,1.94.35.77.59,1.64.72,2.62.13.98.19,2.09.19,3.34,0,1.44-.14,2.78-.43,4.01-.29,1.23-.75,2.28-1.39,3.14-.67.9-1.55,1.6-2.64,2.11-1.09.51-2.42.77-3.98.77-1.18,0-2.29-.21-3.31-.62-1.02-.42-1.9-.99-2.64-1.73-.74-.74-1.32-1.59-1.75-2.57-.43-.98-.65-2.04-.65-3.19v-1.82h4.9v1.54c0,.9.26,1.7.79,2.42.53.72,1.42,1.08,2.66,1.08.83,0,1.48-.12,1.94-.36.46-.24.82-.58,1.08-1.03.26-.45.41-.98.46-1.61.05-.62.07-1.32.07-2.09,0-.9-.03-1.63-.1-2.21-.06-.58-.19-1.04-.38-1.39-.22-.35-.52-.64-.89-.86-.37-.22-.86-.46-1.46-.72l-3.5-1.44c-2.11-.86-3.53-2.01-4.25-3.43-.72-1.42-1.08-3.21-1.08-5.35,0-1.28.18-2.5.53-3.65.35-1.15.88-2.14,1.58-2.98.67-.83,1.53-1.5,2.57-1.99,1.04-.5,2.28-.74,3.72-.74,1.22,0,2.33.22,3.34.67,1.01.45,1.88,1.04,2.62,1.78,1.47,1.54,2.21,3.3,2.21,5.28v2.4Z"/>
        <path d="M20.16,77.04v-24.34h4.9v24.34h-4.9Z"/>
        <path d="M29.09,77.04v-24.34h4.9v2.35h.1c.51-.77,1.13-1.4,1.85-1.9.72-.5,1.64-.74,2.76-.74,1.06,0,1.94.26,2.64.77.7.51,1.28,1.07,1.73,1.68.61-.67,1.28-1.25,2.02-1.73.74-.48,1.76-.72,3.07-.72.61,0,1.23.1,1.87.31.64.21,1.22.55,1.73,1.03.51.48.93,1.1,1.25,1.85.32.75.48,1.67.48,2.76v18.67h-4.9v-16.85c0-.9-.21-1.6-.62-2.11-.42-.51-1.01-.77-1.78-.77-.93,0-1.57.29-1.92.86-.35.58-.53,1.41-.53,2.5v16.37h-4.9v-16.85c0-.9-.21-1.6-.62-2.11-.42-.51-1.01-.77-1.78-.77-.93,0-1.57.29-1.92.86-.35.58-.53,1.41-.53,2.5v16.37h-4.9Z"/>
        <path d="M57.5,86.88v-34.18h4.9v2.21c.61-.7,1.23-1.3,1.87-1.78.64-.48,1.57-.72,2.78-.72,2.02,0,3.44.77,4.27,2.3.29.54.5,1.22.62,2.02.13.8.19,1.87.19,3.22v9.26c0,1.79-.05,3.09-.14,3.89-.19,1.6-.93,2.8-2.21,3.6-.64.42-1.57.62-2.78.62-.96,0-1.82-.22-2.57-.65-.75-.43-1.4-1.05-1.94-1.85h-.1v12.05h-4.9ZM67.25,60.62c0-.99-.19-1.79-.58-2.4-.38-.61-.99-.91-1.82-.91-.74,0-1.33.28-1.78.84-.45.56-.67,1.29-.67,2.18v9.46c0,.77.23,1.4.7,1.9.46.5,1.05.74,1.75.74.93,0,1.56-.29,1.9-.86.34-.58.5-1.25.5-2.02v-8.93Z"/>
        <path d="M75.89,42.86h4.9v27.31c0,.93.17,1.56.5,1.9.34.34.97.55,1.9.65v4.61c-1.12,0-2.13-.09-3.02-.26-.9-.17-1.66-.52-2.3-1.03-.64-.48-1.13-1.16-1.46-2.04s-.5-2.04-.5-3.48v-27.65Z"/>
        <path d="M99.26,66.71h-9.7v3.31c0,.77.22,1.36.65,1.78.43.42,1.02.62,1.75.62.93,0,1.54-.27,1.85-.82.3-.54.49-1.09.55-1.63h4.9c0,2.14-.66,3.87-1.97,5.18-.64.67-1.41,1.2-2.3,1.58-.9.38-1.9.58-3.02.58-1.54,0-2.84-.32-3.91-.96s-1.9-1.49-2.47-2.54c-.35-.64-.59-1.38-.72-2.21-.13-.83-.19-1.74-.19-2.74v-8.02c0-.99.06-1.9.19-2.74.13-.83.37-1.57.72-2.21.58-1.06,1.4-1.9,2.47-2.54,1.07-.64,2.38-.96,3.91-.96,1.12,0,2.14.19,3.05.58.91.38,1.69.91,2.33,1.58,1.28,1.44,1.92,3.25,1.92,5.42v6.72ZM89.57,62.88h4.8v-2.78c0-.93-.22-1.62-.65-2.09-.43-.46-1.02-.7-1.75-.7s-1.32.23-1.75.7c-.43.46-.65,1.16-.65,2.09v2.78Z"/>
        <path d="M111.74,59.51c-.03-.83-.3-1.46-.79-1.87-.5-.42-1.06-.62-1.7-.62-.77,0-1.36.25-1.78.74-.42.5-.62,1.06-.62,1.7,0,.45.11.89.34,1.32.22.43.8.82,1.73,1.18l2.88,1.15c1.82.7,3.08,1.66,3.77,2.88s1.03,2.54,1.03,3.98c0,1.02-.18,1.98-.55,2.86-.37.88-.87,1.66-1.51,2.33-.64.67-1.41,1.2-2.3,1.58s-1.87.58-2.93.58c-1.98,0-3.65-.62-4.99-1.87-.67-.61-1.22-1.37-1.63-2.28-.42-.91-.64-1.98-.67-3.19h4.61c.1.67.33,1.3.7,1.87.37.58,1.02.86,1.94.86.7,0,1.34-.23,1.9-.7.56-.46.84-1.11.84-1.94,0-.67-.18-1.25-.53-1.73-.35-.48-.99-.9-1.92-1.25l-2.35-.86c-1.54-.58-2.74-1.43-3.62-2.57s-1.32-2.52-1.32-4.15c0-1.02.19-1.98.58-2.86.38-.88.91-1.64,1.58-2.28.64-.64,1.39-1.13,2.26-1.46.86-.34,1.79-.5,2.78-.5s1.91.18,2.76.53c.85.35,1.58.85,2.18,1.49.61.64,1.09,1.4,1.44,2.28.35.88.53,1.82.53,2.81h-4.61Z"/>
      </g>
      <g>
        <path d="M.96,119.61v-34.18h7.25c2.82,0,4.95.77,6.41,2.3,1.46,1.54,2.18,3.71,2.18,6.53v15.98c0,3.2-.78,5.56-2.33,7.08-1.55,1.52-3.78,2.28-6.7,2.28H.96ZM5.86,90.04v24.96h2.26c1.38,0,2.35-.34,2.93-1.03.58-.69.86-1.77.86-3.24v-16.46c0-1.34-.27-2.38-.82-3.12-.54-.74-1.54-1.1-2.98-1.1h-2.26Z"/>
        <path d="M35.28,109.29h-9.7v3.31c0,.77.22,1.36.65,1.78.43.42,1.02.62,1.75.62.93,0,1.54-.27,1.85-.82.3-.54.49-1.09.55-1.63h4.9c0,2.14-.66,3.87-1.97,5.18-.64.67-1.41,1.2-2.3,1.58-.9.38-1.9.58-3.02.58-1.54,0-2.84-.32-3.91-.96-1.07-.64-1.9-1.49-2.47-2.54-.35-.64-.59-1.38-.72-2.21-.13-.83-.19-1.74-.19-2.74v-8.02c0-.99.06-1.9.19-2.74.13-.83.37-1.57.72-2.21.58-1.06,1.4-1.9,2.47-2.54,1.07-.64,2.38-.96,3.91-.96,1.12,0,2.14.19,3.05.58.91.38,1.69.91,2.33,1.58,1.28,1.44,1.92,3.25,1.92,5.42v6.72ZM25.58,105.45h4.8v-2.78c0-.93-.22-1.62-.65-2.09-.43-.46-1.02-.7-1.75-.7s-1.32.23-1.75.7-.65,1.16-.65,2.09v2.78Z"/>
        <path d="M47.76,102.09c-.03-.83-.3-1.46-.79-1.87-.5-.42-1.06-.62-1.7-.62-.77,0-1.36.25-1.78.74-.42.5-.62,1.06-.62,1.7,0,.45.11.89.34,1.32.22.43.8.82,1.73,1.18l2.88,1.15c1.82.7,3.08,1.66,3.77,2.88.69,1.22,1.03,2.54,1.03,3.98,0,1.02-.18,1.98-.55,2.86-.37.88-.87,1.66-1.51,2.33-.64.67-1.41,1.2-2.3,1.58-.9.38-1.87.58-2.93.58-1.98,0-3.65-.62-4.99-1.87-.67-.61-1.22-1.37-1.63-2.28-.42-.91-.64-1.98-.67-3.19h4.61c.1.67.33,1.3.7,1.87.37.58,1.02.86,1.94.86.7,0,1.34-.23,1.9-.7.56-.46.84-1.11.84-1.94,0-.67-.18-1.25-.53-1.73-.35-.48-.99-.9-1.92-1.25l-2.35-.86c-1.54-.58-2.74-1.43-3.62-2.57-.88-1.14-1.32-2.52-1.32-4.15,0-1.02.19-1.98.58-2.86.38-.88.91-1.64,1.58-2.28.64-.64,1.39-1.13,2.26-1.46.86-.34,1.79-.5,2.78-.5s1.91.18,2.76.53c.85.35,1.58.85,2.18,1.49.61.64,1.09,1.4,1.44,2.28.35.88.53,1.82.53,2.81h-4.61Z"/>
        <path d="M55.77,119.61v-24.34h4.9v24.34h-4.9Z"/>
        <path d="M69.6,122.44c.03.58.26,1.12.7,1.63.43.51,1.06.77,1.9.77s1.38-.25,1.73-.74c.35-.5.53-1.13.53-1.9v-4.8h-.1c-.54.8-1.19,1.42-1.94,1.85-.75.43-1.62.65-2.62.65-2.05,0-3.47-.77-4.27-2.3-.29-.54-.5-1.22-.62-2.02-.13-.8-.19-1.87-.19-3.22v-9.26c0-1.76.05-3.05.14-3.89.19-1.6.94-2.8,2.26-3.6.61-.42,1.52-.62,2.74-.62.61,0,1.13.06,1.56.19.43.13.82.3,1.18.53.35.22.67.49.96.79.29.3.59.63.91.98v-2.21h4.9v27.31c0,.83-.14,1.67-.41,2.52-.27.85-.71,1.61-1.32,2.28-.61.7-1.38,1.27-2.3,1.7-.93.43-2.03.65-3.31.65-.74,0-1.5-.12-2.3-.36-.8-.24-1.54-.65-2.21-1.22-.7-.54-1.3-1.27-1.8-2.18-.5-.91-.82-2.09-.98-3.53h4.9ZM69.6,112.12c0,.77.17,1.44.5,2.02.34.58.97.86,1.9.86.7,0,1.29-.25,1.75-.74.46-.5.7-1.13.7-1.9v-9.46c0-.9-.22-1.62-.67-2.18-.45-.56-1.04-.84-1.78-.84-.83,0-1.44.3-1.82.91-.38.61-.58,1.41-.58,2.4v8.93Z"/>
        <path d="M83.37,119.61v-24.34h4.9v2.35h.1c.51-.77,1.13-1.4,1.85-1.9s1.64-.74,2.76-.74c.61,0,1.22.1,1.82.31.61.21,1.15.55,1.63,1.03.48.48.86,1.1,1.15,1.85.29.75.43,1.67.43,2.76v18.67h-4.9v-16.85c0-.9-.21-1.6-.62-2.11-.42-.51-1.01-.77-1.78-.77-.93,0-1.57.29-1.92.86-.35.58-.53,1.41-.53,2.5v16.37h-4.9Z"/>
      </g>
    </g>
  </g>
</svg>