<?xml version="1.0" encoding="UTF-8"?>
<svg id="_レイヤー_2" data-name="レイヤー 2" xmlns="http://www.w3.org/2000/svg" viewBox="0 0 446.15 44.35">
  <g id="_レイヤー_1-2" data-name="レイヤー 1">
    <g>
      <path d="M1.25,29.71c.61.42,1.46.81,2.57,1.18,1.1.37,2.36.55,3.77.55,1.79,0,3.25-.44,4.37-1.32,1.12-.88,1.68-2.26,1.68-4.15,0-1.25-.32-2.33-.96-3.26-.64-.93-1.44-1.78-2.4-2.57-.96-.78-1.99-1.55-3.1-2.3-1.1-.75-2.14-1.58-3.1-2.5s-1.76-1.96-2.4-3.14c-.64-1.18-.96-2.61-.96-4.27C.72,5.23,1.53,3.24,3.14,1.94c1.62-1.3,3.72-1.94,6.31-1.94,1.6,0,3.02.14,4.27.43s2.26.66,3.02,1.1l-1.15,3.17c-.58-.35-1.4-.67-2.47-.96-1.07-.29-2.31-.43-3.72-.43-1.73,0-3.01.42-3.84,1.27-.83.85-1.25,1.91-1.25,3.19,0,1.12.32,2.11.96,2.98.64.86,1.44,1.68,2.4,2.45.96.77,1.99,1.54,3.1,2.33,1.1.78,2.14,1.66,3.1,2.62.96.96,1.76,2.05,2.4,3.26.64,1.22.96,2.66.96,4.32,0,2.82-.83,5.02-2.5,6.62-1.66,1.6-4.02,2.4-7.06,2.4-1.92,0-3.5-.18-4.73-.53-1.23-.35-2.22-.75-2.95-1.2l1.25-3.31Z"/>
      <path d="M25.97,10.18h3.46v24h-3.46V10.18Z"/>
      <path d="M50.64,34.18v-14.26c0-1.28-.04-2.38-.12-3.29-.08-.91-.25-1.66-.5-2.23-.26-.58-.61-1-1.06-1.27-.45-.27-1.04-.41-1.78-.41-1.09,0-2.01.42-2.76,1.27-.75.85-1.27,1.82-1.56,2.9v17.28h-3.46V10.18h2.45l.62,2.54h.14c.67-.93,1.47-1.68,2.4-2.26.93-.58,2.11-.86,3.55-.86,1.22,0,2.22.26,3,.79.78.53,1.4,1.46,1.85,2.81.58-1.12,1.4-2,2.47-2.64,1.07-.64,2.25-.96,3.53-.96,1.06,0,1.96.14,2.71.41.75.27,1.36.75,1.82,1.44.46.69.81,1.6,1.03,2.74.22,1.14.34,2.57.34,4.3v15.7h-3.46v-15.26c0-2.08-.2-3.63-.6-4.66-.4-1.02-1.32-1.54-2.76-1.54-1.22,0-2.18.38-2.9,1.13-.72.75-1.22,1.77-1.51,3.05v17.28h-3.46Z"/>
      <path d="M74.25,10.18h2.45l.53,2.59h.19c1.18-2.11,3.04-3.17,5.57-3.17s4.42.94,5.69,2.83c1.26,1.89,1.9,4.98,1.9,9.26,0,2.02-.21,3.83-.62,5.45-.42,1.62-1.01,2.99-1.78,4.13-.77,1.14-1.7,2-2.81,2.59-1.1.59-2.33.89-3.67.89-.93,0-1.66-.06-2.21-.17-.54-.11-1.14-.34-1.78-.7v9.89h-3.46V10.18ZM77.71,30.38c.45.38.95.69,1.51.91.56.22,1.3.34,2.23.34,1.7,0,3.04-.86,4.03-2.59.99-1.73,1.49-4.19,1.49-7.39,0-1.34-.09-2.56-.26-3.65s-.46-2.02-.84-2.81-.87-1.39-1.46-1.82c-.59-.43-1.32-.65-2.18-.65-2.34,0-3.84,1.42-4.51,4.27v13.39Z"/>
      <path d="M102.43,28.46c0,1.12.15,1.92.46,2.4.3.48.73.72,1.27.72.67,0,1.46-.18,2.35-.53l.34,2.78c-.42.26-1,.46-1.75.62s-1.43.24-2.04.24c-1.22,0-2.2-.38-2.95-1.13-.75-.75-1.13-2.07-1.13-3.96V.58h3.46v27.89Z"/>
      <path d="M127.87,32.54c-.77.7-1.75,1.25-2.93,1.63s-2.43.58-3.74.58c-1.5,0-2.81-.3-3.91-.89-1.1-.59-2.02-1.44-2.74-2.54-.72-1.1-1.25-2.42-1.58-3.96s-.5-3.26-.5-5.18c0-4.1.75-7.22,2.26-9.36,1.5-2.14,3.63-3.22,6.38-3.22.9,0,1.78.11,2.66.34.88.22,1.67.67,2.38,1.34s1.27,1.62,1.7,2.83.65,2.8.65,4.75c0,.54-.02,1.13-.07,1.75s-.1,1.27-.17,1.94h-12.19c0,1.38.11,2.62.34,3.74.22,1.12.58,2.07,1.06,2.86.48.78,1.1,1.39,1.85,1.82.75.43,1.69.65,2.81.65.86,0,1.72-.16,2.57-.48.85-.32,1.5-.7,1.94-1.15l1.25,2.54ZM125.18,19.68c.06-2.4-.27-4.16-1.01-5.28-.74-1.12-1.74-1.68-3.02-1.68-1.47,0-2.64.56-3.5,1.68-.86,1.12-1.38,2.88-1.54,5.28h9.07Z"/>
      <path d="M150.72,29.71c.61.42,1.46.81,2.57,1.18,1.1.37,2.36.55,3.77.55,1.79,0,3.25-.44,4.37-1.32,1.12-.88,1.68-2.26,1.68-4.15,0-1.25-.32-2.33-.96-3.26-.64-.93-1.44-1.78-2.4-2.57-.96-.78-1.99-1.55-3.1-2.3-1.1-.75-2.14-1.58-3.1-2.5s-1.76-1.96-2.4-3.14c-.64-1.18-.96-2.61-.96-4.27,0-2.69.81-4.68,2.42-5.98,1.62-1.3,3.72-1.94,6.31-1.94,1.6,0,3.02.14,4.27.43s2.26.66,3.02,1.1l-1.15,3.17c-.58-.35-1.4-.67-2.47-.96s-2.31-.43-3.72-.43c-1.73,0-3.01.42-3.84,1.27-.83.85-1.25,1.91-1.25,3.19,0,1.12.32,2.11.96,2.98.64.86,1.44,1.68,2.4,2.45.96.77,1.99,1.54,3.1,2.33,1.1.78,2.14,1.66,3.1,2.62.96.96,1.76,2.05,2.4,3.26.64,1.22.96,2.66.96,4.32,0,2.82-.83,5.02-2.5,6.62-1.66,1.6-4.02,2.4-7.06,2.4-1.92,0-3.5-.18-4.73-.53-1.23-.35-2.22-.75-2.95-1.2l1.25-3.31Z"/>
      <path d="M175.44,10.18h3.46v24h-3.46V10.18Z"/>
      <path d="M200.11,34.18v-14.26c0-1.28-.04-2.38-.12-3.29s-.25-1.66-.5-2.23c-.26-.58-.61-1-1.06-1.27-.45-.27-1.04-.41-1.78-.41-1.09,0-2.01.42-2.76,1.27s-1.27,1.82-1.56,2.9v17.28h-3.46V10.18h2.45l.62,2.54h.14c.67-.93,1.47-1.68,2.4-2.26.93-.58,2.11-.86,3.55-.86,1.22,0,2.21.26,3,.79.78.53,1.4,1.46,1.85,2.81.58-1.12,1.4-2,2.47-2.64,1.07-.64,2.25-.96,3.53-.96,1.06,0,1.96.14,2.71.41.75.27,1.36.75,1.82,1.44.46.69.81,1.6,1.03,2.74.22,1.14.34,2.57.34,4.3v15.7h-3.46v-15.26c0-2.08-.2-3.63-.6-4.66-.4-1.02-1.32-1.54-2.76-1.54-1.22,0-2.18.38-2.9,1.13-.72.75-1.22,1.77-1.51,3.05v17.28h-3.46Z"/>
      <path d="M223.72,10.18h2.45l.53,2.59h.19c1.18-2.11,3.04-3.17,5.57-3.17s4.42.94,5.69,2.83c1.26,1.89,1.9,4.98,1.9,9.26,0,2.02-.21,3.83-.62,5.45-.42,1.62-1.01,2.99-1.78,4.13-.77,1.14-1.7,2-2.81,2.59-1.1.59-2.33.89-3.67.89-.93,0-1.66-.06-2.21-.17-.54-.11-1.14-.34-1.78-.7v9.89h-3.46V10.18ZM227.18,30.38c.45.38.95.69,1.51.91.56.22,1.3.34,2.23.34,1.7,0,3.04-.86,4.03-2.59.99-1.73,1.49-4.19,1.49-7.39,0-1.34-.09-2.56-.26-3.65s-.46-2.02-.84-2.81-.87-1.39-1.46-1.82c-.59-.43-1.32-.65-2.18-.65-2.34,0-3.84,1.42-4.51,4.27v13.39Z"/>
      <path d="M251.9,28.46c0,1.12.15,1.92.46,2.4.3.48.73.72,1.27.72.67,0,1.46-.18,2.35-.53l.34,2.78c-.42.26-1,.46-1.75.62s-1.43.24-2.04.24c-1.22,0-2.2-.38-2.95-1.13-.75-.75-1.13-2.07-1.13-3.96V.58h3.46v27.89Z"/>
      <path d="M277.34,32.54c-.77.7-1.75,1.25-2.93,1.63s-2.43.58-3.74.58c-1.5,0-2.81-.3-3.91-.89-1.1-.59-2.02-1.44-2.74-2.54-.72-1.1-1.25-2.42-1.58-3.96s-.5-3.26-.5-5.18c0-4.1.75-7.22,2.26-9.36,1.5-2.14,3.63-3.22,6.38-3.22.9,0,1.78.11,2.66.34.88.22,1.67.67,2.38,1.34s1.27,1.62,1.7,2.83.65,2.8.65,4.75c0,.54-.02,1.13-.07,1.75s-.1,1.27-.17,1.94h-12.19c0,1.38.11,2.62.34,3.74.22,1.12.58,2.07,1.06,2.86.48.78,1.1,1.39,1.85,1.82.75.43,1.69.65,2.81.65.86,0,1.72-.16,2.57-.48.85-.32,1.5-.7,1.94-1.15l1.25,2.54ZM274.65,19.68c.06-2.4-.27-4.16-1.01-5.28-.74-1.12-1.74-1.68-3.02-1.68-1.47,0-2.64.56-3.5,1.68-.86,1.12-1.38,2.88-1.54,5.28h9.07Z"/>
      <path d="M286.03,30.24c.64.38,1.4.71,2.28.98.88.27,1.78.41,2.71.41,1.06,0,1.95-.27,2.69-.8.74-.53,1.1-1.39,1.1-2.58,0-1-.22-1.82-.67-2.46s-1.02-1.22-1.7-1.74-1.43-.99-2.23-1.42c-.8-.43-1.54-.95-2.23-1.55-.69-.61-1.26-1.32-1.7-2.15s-.67-1.88-.67-3.16c0-2.04.55-3.58,1.66-4.62,1.1-1.04,2.66-1.55,4.68-1.55,1.31,0,2.45.12,3.41.36s1.79.57,2.5.98l-.91,2.88c-.61-.32-1.31-.58-2.11-.79s-1.62-.31-2.45-.31c-1.15,0-1.99.24-2.52.72-.53.48-.79,1.23-.79,2.26,0,.8.22,1.48.67,2.04s1.02,1.07,1.7,1.54c.69.46,1.43.94,2.23,1.42.8.48,1.54,1.05,2.23,1.7.69.66,1.26,1.44,1.7,2.35s.67,2.06.67,3.43c0,.9-.14,1.75-.43,2.54-.29.8-.73,1.5-1.32,2.09s-1.33,1.06-2.21,1.42c-.88.35-1.91.53-3.1.53-1.41,0-2.62-.14-3.65-.41s-1.89-.63-2.59-1.08l1.06-3.02Z"/>
      <path d="M320.25.58c.51-.1,1.08-.17,1.7-.22s1.26-.08,1.9-.1c.64-.02,1.27-.03,1.9-.05.62-.02,1.21-.02,1.75-.02,2.33,0,4.32.4,5.95,1.2,1.63.8,2.96,1.94,3.98,3.43s1.76,3.27,2.21,5.35c.45,2.08.67,4.4.67,6.96,0,2.3-.22,4.51-.65,6.62-.43,2.11-1.16,3.97-2.18,5.57-1.03,1.6-2.38,2.88-4.06,3.84-1.68.96-3.78,1.44-6.31,1.44-.42,0-.94,0-1.58-.02-.64-.02-1.3-.05-1.99-.1-.69-.05-1.33-.09-1.92-.12-.59-.03-1.05-.08-1.37-.14V.58ZM327.69,3.5h-1.03c-.37,0-.73.02-1.08.05-.35.03-.68.06-.98.1-.3.03-.55.06-.74.1v27.36c.13.03.36.06.7.07.34.02.69.03,1.06.05.37.02.72.03,1.06.05.34.02.58.02.74.02,1.76,0,3.23-.38,4.42-1.15,1.18-.77,2.12-1.8,2.81-3.1.69-1.3,1.18-2.8,1.46-4.51s.43-3.53.43-5.45c0-1.7-.13-3.36-.38-4.99s-.71-3.08-1.37-4.34c-.66-1.26-1.55-2.29-2.69-3.07-1.14-.78-2.6-1.18-4.39-1.18Z"/>
      <path d="M363.16,32.54c-.77.7-1.75,1.25-2.93,1.63s-2.43.58-3.74.58c-1.5,0-2.81-.3-3.91-.89-1.1-.59-2.02-1.44-2.74-2.54-.72-1.1-1.25-2.42-1.58-3.96s-.5-3.26-.5-5.18c0-4.1.75-7.22,2.26-9.36,1.5-2.14,3.63-3.22,6.38-3.22.9,0,1.78.11,2.66.34.88.22,1.67.67,2.38,1.34s1.27,1.62,1.7,2.83.65,2.8.65,4.75c0,.54-.02,1.13-.07,1.75s-.1,1.27-.17,1.94h-12.19c0,1.38.11,2.62.34,3.74.22,1.12.58,2.07,1.06,2.86.48.78,1.1,1.39,1.85,1.82.75.43,1.69.65,2.81.65.86,0,1.72-.16,2.57-.48.85-.32,1.5-.7,1.94-1.15l1.25,2.54ZM360.47,19.68c.06-2.4-.27-4.16-1.01-5.28-.74-1.12-1.74-1.68-3.02-1.68-1.47,0-2.64.56-3.5,1.68-.86,1.12-1.38,2.88-1.54,5.28h9.07Z"/>
      <path d="M371.85,30.24c.64.38,1.4.71,2.28.98.88.27,1.78.41,2.71.41,1.06,0,1.95-.27,2.69-.8.74-.53,1.1-1.39,1.1-2.58,0-1-.22-1.82-.67-2.46s-1.02-1.22-1.7-1.74c-.69-.51-1.43-.99-2.23-1.42-.8-.43-1.54-.95-2.23-1.55-.69-.61-1.26-1.32-1.7-2.15-.45-.83-.67-1.88-.67-3.16,0-2.04.55-3.58,1.66-4.62,1.1-1.04,2.66-1.55,4.68-1.55,1.31,0,2.45.12,3.41.36s1.79.57,2.5.98l-.91,2.88c-.61-.32-1.31-.58-2.11-.79-.8-.21-1.62-.31-2.45-.31-1.15,0-1.99.24-2.52.72-.53.48-.79,1.23-.79,2.26,0,.8.22,1.48.67,2.04.45.56,1.02,1.07,1.7,1.54.69.46,1.43.94,2.23,1.42.8.48,1.54,1.05,2.23,1.7.69.66,1.26,1.44,1.7,2.35s.67,2.06.67,3.43c0,.9-.14,1.75-.43,2.54-.29.8-.73,1.5-1.32,2.09-.59.59-1.33,1.06-2.21,1.42-.88.35-1.91.53-3.1.53-1.41,0-2.62-.14-3.65-.41-1.02-.27-1.89-.63-2.59-1.08l1.06-3.02Z"/>
      <path d="M392.63,10.18h3.46v24h-3.46V10.18Z"/>
      <path d="M421.19,35.28c0,3.1-.69,5.39-2.06,6.86s-3.38,2.21-6,2.21c-1.6,0-2.91-.14-3.94-.41-1.02-.27-1.86-.58-2.5-.94l1.01-2.98c.64.29,1.34.56,2.11.82.77.26,1.71.38,2.83.38,1.95,0,3.29-.54,4.01-1.63s1.08-2.91,1.08-5.47v-1.78h-.14c-.51.74-1.17,1.31-1.97,1.73-.8.42-1.82.62-3.07.62-2.59,0-4.5-1-5.71-3s-1.82-5.14-1.82-9.43.79-7.25,2.38-9.36,3.93-3.17,7.03-3.17c1.5,0,2.8.14,3.89.43,1.09.29,2.05.62,2.88,1.01v24.1ZM417.74,13.63c-.96-.51-2.19-.77-3.7-.77-1.63,0-2.94.74-3.94,2.23-.99,1.49-1.49,3.86-1.49,7.13,0,1.34.08,2.58.24,3.72.16,1.14.43,2.13.82,2.98.38.85.87,1.5,1.46,1.97.59.46,1.32.7,2.18.7,1.22,0,2.18-.32,2.88-.96.7-.64,1.22-1.6,1.54-2.88v-14.11Z"/>
      <path d="M442.7,34.18v-14.64c0-2.4-.28-4.14-.84-5.21-.56-1.07-1.56-1.61-3-1.61-1.28,0-2.34.38-3.17,1.15-.83.77-1.44,1.71-1.82,2.83v17.47h-3.46V10.18h2.5l.62,2.54h.14c.61-.86,1.43-1.6,2.47-2.21,1.04-.61,2.28-.91,3.72-.91,1.02,0,1.93.14,2.71.43s1.44.78,1.97,1.46c.53.69.93,1.61,1.2,2.76.27,1.15.41,2.61.41,4.37v15.55h-3.46Z"/>
    </g>
  </g>
</svg>